<svg width="63" height="60" viewBox="0 0 63 60" fill="none" xmlns="http://www.w3.org/2000/svg">
<path d="M13.3332 34.6667C13.3332 39.0624 15.1058 43.044 17.9751 45.9359C18.2519 46.2148 18.3902 46.3542 18.4719 46.4883C18.5498 46.6163 18.5952 46.7264 18.63 46.8722C18.6665 47.0249 18.6665 47.1987 18.6665 47.5462V53.8667C18.6665 54.6134 18.6665 54.9868 18.8118 55.272C18.9396 55.5229 19.1436 55.7268 19.3945 55.8547C19.6797 56 20.0531 56 20.7998 56H25.8665C26.6132 56 26.9866 56 27.2718 55.8547C27.5227 55.7268 27.7267 55.5229 27.8545 55.272C27.9998 54.9868 27.9998 54.6134 27.9998 53.8667V52.8C27.9998 52.0533 27.9998 51.6799 28.1451 51.3947C28.273 51.1438 28.4769 50.9398 28.7278 50.812C29.013 50.6667 29.3864 50.6667 30.1332 50.6667H33.8665C34.6132 50.6667 34.9866 50.6667 35.2718 50.812C35.5227 50.9398 35.7267 51.1438 35.8545 51.3947C35.9998 51.6799 35.9998 52.0533 35.9998 52.8V53.8667C35.9998 54.6134 35.9998 54.9868 36.1451 55.272C36.273 55.5229 36.4769 55.7268 36.7278 55.8547C37.013 56 37.3864 56 38.1332 56H43.2C43.9467 56 44.3201 56 44.6053 55.8547C44.8562 55.7268 45.0602 55.5229 45.188 55.272C45.3333 54.9868 45.3333 54.6134 45.3333 53.8667V51.2649C45.3333 50.726 45.3333 50.4566 45.41 50.2404C45.4836 50.0331 45.5762 49.888 45.7332 49.734C45.8971 49.5733 46.1747 49.4445 46.7298 49.1867C49.3491 47.9707 51.5841 46.0668 53.203 43.7071C53.4877 43.2922 53.63 43.0847 53.782 42.9621C53.9273 42.8449 54.0578 42.7762 54.2366 42.7227C54.4237 42.6667 54.6458 42.6667 55.09 42.6667H56.5333C57.2801 42.6667 57.6534 42.6667 57.9387 42.5213C58.1895 42.3935 58.3935 42.1895 58.5213 41.9387C58.6667 41.6534 58.6667 41.2801 58.6667 40.5333V31.4287C58.6667 30.7178 58.6667 30.3623 58.5346 30.0881C58.4036 29.816 58.184 29.5965 57.9119 29.4654C57.6377 29.3333 57.2823 29.3333 56.5713 29.3333C56.0568 29.3333 55.7995 29.3333 55.5922 29.2635C55.3688 29.1881 55.2121 29.088 55.05 28.9167C54.8996 28.7579 54.7769 28.4924 54.5314 27.9613C53.7435 26.2566 52.6644 24.7141 51.358 23.3974C51.0813 23.1185 50.9429 22.9791 50.8613 22.845C50.7833 22.717 50.738 22.6069 50.7031 22.4612C50.6667 22.3085 50.6667 22.1347 50.6667 21.7871V18.8282C50.6667 17.8681 50.6667 17.388 50.4667 17.0653C50.2916 16.7827 50.0171 16.5757 49.6972 16.4849C49.332 16.3813 48.8705 16.5132 47.9473 16.777L41.6204 18.5846C41.5129 18.6153 41.4592 18.6307 41.4045 18.6414C41.356 18.651 41.3069 18.6579 41.2576 18.662C41.2021 18.6667 41.1462 18.6667 41.0344 18.6667H39.8908M13.3332 34.6667C13.3332 28.5225 16.7964 23.1872 21.8773 20.5064M13.3332 34.6667H10.6667C7.72115 34.6667 5.33334 32.2789 5.33334 29.3333C5.33334 27.3592 6.40587 25.6357 8 24.7135M40 17.3333C40 22.488 35.8213 26.6667 30.6667 26.6667C25.512 26.6667 21.3333 22.488 21.3333 17.3333C21.3333 12.1787 25.512 8 30.6667 8C35.8213 8 40 12.1787 40 17.3333Z" stroke="#32D583" stroke-width="4" stroke-linecap="round" stroke-linejoin="round"/>
</svg>
